#N canvas 69 23 1778 1031 10;
#X floatatom 25 129 3 0 0 0 - - -;
#X obj 45 150 bng 20 250 50 0 empty empty empty 17 7 0 10 -262144 -1
-1;
#X obj 59 129 outlet;
#X floatatom 34 -126 3 0 0 0 - - -;
#X obj 55 -102 bng 20 250 50 0 empty empty empty 17 7 0 10 -262144
-1 -1;
#X obj 70 -122 outlet;
#X floatatom 19 405 3 0 0 0 - - -;
#X obj 28 430 bng 20 250 50 0 empty empty empty 17 7 0 10 -262144 -1
-1;
#X obj 55 411 outlet;
#X floatatom 14 837 3 0 0 0 - - -;
#X obj 23 859 bng 20 250 50 0 empty empty empty 17 7 0 10 -262144 -1
-1;
#X obj 50 843 outlet;
#X floatatom 147 128 3 0 0 0 - - -;
#X obj 168 149 bng 20 250 50 0 empty empty empty 17 7 0 10 -262144
-1 -1;
#X obj 181 128 outlet;
#X floatatom 240 129 3 0 0 0 - - -;
#X obj 260 151 bng 20 250 50 0 empty empty empty 17 7 0 10 -262144
-1 -1;
#X obj 271 129 outlet;
#X obj 19 380 ctlin 18 1;
#X obj 14 812 ctlin 19 1;
#X floatatom 335 127 3 0 0 0 - - -;
#X obj 347 148 bng 20 250 50 0 empty empty empty 17 7 0 10 -262144
-1 -1;
#X obj 363 127 outlet;
#X floatatom 477 127 3 0 0 0 - - -;
#X obj 496 150 bng 20 250 50 0 empty empty empty 17 7 0 10 -262144
-1 -1;
#X obj 511 126 outlet;
#X floatatom 578 120 3 0 0 0 - - -;
#X obj 598 145 bng 20 250 50 0 empty empty empty 17 7 0 10 -262144
-1 -1;
#X obj 614 126 outlet;
#X floatatom 673 118 3 0 0 0 - - -;
#X obj 693 143 bng 20 250 50 0 empty empty empty 17 7 0 10 -262144
-1 -1;
#X obj 709 124 outlet;
#X floatatom 766 119 3 0 0 0 - - -;
#X obj 786 144 bng 20 250 50 0 empty empty empty 17 7 0 10 -262144
-1 -1;
#X obj 802 125 outlet;
#X obj 188 -126 outlet;
#X floatatom 245 -131 3 0 0 0 - - -;
#X obj 251 -109 bng 20 250 50 0 empty empty empty 17 7 0 10 -262144
-1 -1;
#X obj 281 -125 outlet;
#X floatatom 340 -133 3 0 0 0 - - -;
#X obj 354 -108 bng 20 250 50 0 empty empty empty 17 7 0 10 -262144
-1 -1;
#X obj 376 -127 outlet;
#X floatatom 479 -132 3 0 0 0 - - -;
#X obj 507 -109 bng 20 250 50 0 empty empty empty 17 7 0 10 -262144
-1 -1;
#X obj 515 -131 outlet;
#X floatatom 580 -139 3 0 0 0 - - -;
#X obj 607 -112 bng 20 250 50 0 empty empty empty 17 7 0 10 -262144
-1 -1;
#X obj 613 -137 outlet;
#X floatatom 675 -141 3 0 0 0 - - -;
#X obj 692 -115 bng 20 250 50 0 empty empty empty 17 7 0 10 -262144
-1 -1;
#X obj 711 -135 outlet;
#X floatatom 768 -140 3 0 0 0 - - -;
#X obj 782 -120 bng 20 250 50 0 empty empty empty 17 7 0 10 -262144
-1 -1;
#X obj 804 -134 outlet;
#X obj 176 404 outlet;
#X floatatom 233 399 3 0 0 0 - - -;
#X obj 239 422 bng 20 250 50 0 empty empty empty 17 7 0 10 -262144
-1 -1;
#X obj 269 405 outlet;
#X floatatom 328 397 3 0 0 0 - - -;
#X obj 347 422 bng 20 250 50 0 empty empty empty 17 7 0 10 -262144
-1 -1;
#X obj 364 403 outlet;
#X floatatom 467 398 3 0 0 0 - - -;
#X obj 488 422 bng 20 250 50 0 empty empty empty 17 7 0 10 -262144
-1 -1;
#X obj 503 399 outlet;
#X floatatom 568 391 3 0 0 0 - - -;
#X obj 581 415 bng 20 250 50 0 empty empty empty 17 7 0 10 -262144
-1 -1;
#X obj 604 397 outlet;
#X floatatom 663 389 3 0 0 0 - - -;
#X obj 682 415 bng 20 250 50 0 empty empty empty 17 7 0 10 -262144
-1 -1;
#X obj 699 395 outlet;
#X floatatom 756 390 3 0 0 0 - - -;
#X obj 770 412 bng 20 250 50 0 empty empty empty 17 7 0 10 -262144
-1 -1;
#X obj 792 396 outlet;
#X floatatom 139 407 3 0 0 0 - - -;
#X obj 149 428 bng 20 250 50 0 empty empty empty 17 7 0 10 -262144
-1 -1;
#X floatatom 152 -128 3 0 0 0 - - -;
#X obj 160 -106 bng 20 250 50 0 empty empty empty 17 7 0 10 -262144
-1 -1;
#X obj 147 840 outlet;
#X floatatom 204 835 3 0 0 0 - - -;
#X obj 211 855 bng 20 250 50 0 empty empty empty 17 7 0 10 -262144
-1 -1;
#X obj 240 841 outlet;
#X floatatom 299 833 3 0 0 0 - - -;
#X obj 309 856 bng 20 250 50 0 empty empty empty 17 7 0 10 -262144
-1 -1;
#X obj 335 839 outlet;
#X floatatom 438 834 3 0 0 0 - - -;
#X obj 449 855 bng 20 250 50 0 empty empty empty 17 7 0 10 -262144
-1 -1;
#X obj 474 835 outlet;
#X floatatom 539 827 3 0 0 0 - - -;
#X obj 549 849 bng 20 250 50 0 empty empty empty 17 7 0 10 -262144
-1 -1;
#X obj 575 833 outlet;
#X floatatom 634 825 3 0 0 0 - - -;
#X obj 646 847 bng 20 250 50 0 empty empty empty 17 7 0 10 -262144
-1 -1;
#X obj 670 831 outlet;
#X floatatom 727 826 3 0 0 0 - - -;
#X obj 740 849 bng 20 250 50 0 empty empty empty 17 7 0 10 -262144
-1 -1;
#X obj 763 832 outlet;
#X floatatom 111 833 3 0 0 0 - - -;
#X obj 120 854 bng 20 250 50 0 empty empty empty 17 7 0 10 -262144
-1 -1;
#X obj 141 373 ctlin 22 1;
#X obj 111 809 ctlin 23 1;
#X obj 233 374 ctlin 26 1;
#X obj 204 810 ctlin 27 1;
#X obj 328 372 ctlin 30 1;
#X obj 299 808 ctlin 31 1;
#X obj 467 368 ctlin 48 1;
#X obj 438 804 ctlin 49 1;
#X obj 539 802 ctlin 53 1;
#X obj 634 800 ctlin 57 1;
#X obj 727 801 ctlin 61 1;
#X floatatom 1006 833 3 0 0 0 - - -;
#X obj 1016 855 bng 20 250 50 0 empty empty empty 17 7 0 10 -262144
-1 -1;
#X obj 1042 839 outlet;
#X obj 1006 808 ctlin 62 1;
#X obj 568 366 ctlin 52 1;
#X obj 663 365 ctlin 56 1;
#X obj 756 366 ctlin 60 1;
#X obj 25 178 knob 32 32 0 127 0 0 empty empty empty 0 -8 0 8 -262144
-1 -1 0 1;
#X obj 147 175 knob 32 32 0 127 0 0 empty empty empty 0 -8 0 8 -262144
-1 -1 0 1;
#X obj 240 175 knob 32 32 0 127 0 0 empty empty empty 0 -8 0 8 -262144
-1 -1 0 1;
#X obj 477 174 knob 32 32 0 127 0 0 empty empty empty 0 -8 0 8 -262144
-1 -1 0 1;
#X obj 578 169 knob 32 32 0 127 0 0 empty empty empty 0 -8 0 8 -262144
-1 -1 0 1;
#X obj 673 169 knob 32 32 0 127 0 0 empty empty empty 0 -8 0 8 -262144
-1 -1 0 1;
#X obj 34 -75 knob 32 32 0 127 0 0 empty empty empty 0 -8 0 8 -262144
-1 -1 0 1;
#X obj 152 -74 knob 32 32 0 127 0 0 empty empty empty 0 -8 0 8 -262144
-1 -1 0 1;
#X obj 244 -74 knob 32 32 0 127 0 0 empty empty empty 0 -8 0 8 -262144
-1 -1 0 1;
#X obj 19 455 knob 32 32 0 127 0 0 empty empty empty 0 -8 0 8 -262144
-1 -1 0 1;
#X obj 139 450 knob 32 32 0 127 0 0 empty empty empty 0 -8 0 8 -262144
-1 -1 0 1;
#X obj 233 449 knob 32 32 0 127 0 0 empty empty empty 0 -8 0 8 -262144
-1 -1 0 1;
#X obj 479 -89 knob 32 32 0 127 0 0 empty empty empty 0 -8 0 8 -262144
-1 -1 0 1;
#X obj 580 -91 knob 32 32 0 127 0 0 empty empty empty 0 -8 0 8 -262144
-1 -1 0 1;
#X obj 675 -91 knob 32 32 0 127 0 0 empty empty empty 0 -8 0 8 -262144
-1 -1 0 1;
#X obj 467 445 knob 32 32 0 127 0 0 empty empty empty 0 -8 0 8 -262144
-1 -1 0 1;
#X obj 568 439 knob 32 32 0 127 0 0 empty empty empty 0 -8 0 8 -262144
-1 -1 0 1;
#X obj 663 436 knob 32 32 0 127 0 0 empty empty empty 0 -8 0 8 -262144
-1 -1 0 1;
#X obj 334 171 knob 32 32 0 127 0 0 empty empty empty 0 -8 0 8 -262144
-1 -1 0 1;
#X obj 340 -85 knob 32 32 0 127 0 0 empty empty empty 0 -8 0 8 -262144
-1 -1 0 1;
#X obj 328 445 knob 32 32 0 127 0 0 empty empty empty 0 -8 0 8 -262144
-1 -1 0 1;
#X obj 765 167 knob 32 32 0 127 0 0 empty empty empty 0 -8 0 8 -262144
-1 -1 0 1;
#X obj 768 -96 knob 32 32 0 127 0 0 empty empty empty 0 -8 0 8 -262144
-1 -1 0 1;
#X obj 756 435 knob 32 32 0 127 0 0 empty empty empty 0 -8 0 8 -262144
-1 -1 0 1;
#X obj 14 887 vsl 15 128 0 127 0 0 empty empty empty 0 -9 0 10 -262144
-1 -1 0 1;
#X obj 111 884 vsl 15 128 0 127 0 0 empty empty empty 0 -9 0 10 -262144
-1 -1 0 1;
#X obj 204 884 vsl 15 128 0 127 0 0 empty empty empty 0 -9 0 10 -262144
-1 -1 0 1;
#X obj 299 883 vsl 15 128 0 127 0 0 empty empty empty 0 -9 0 10 -262144
-1 -1 0 1;
#X obj 438 883 vsl 15 128 0 127 0 0 empty empty empty 0 -9 0 10 -262144
-1 -1 0 1;
#X obj 540 880 vsl 15 128 0 127 0 0 empty empty empty 0 -9 0 10 -262144
-1 -1 0 1;
#X obj 634 874 vsl 15 128 0 127 0 0 empty empty empty 0 -9 0 10 -262144
-1 -1 0 1;
#X obj 727 875 vsl 15 128 0 127 0 0 empty empty empty 0 -9 0 10 -262144
-1 -1 0 1;
#X obj 1006 886 vsl 15 128 0 127 0 0 empty empty empty 0 -9 0 10 -262144
-1 -1 0 1;
#X text 1016 778 MASTER;
#X floatatom 10 645 3 0 0 0 - - -;
#X obj 10 622 notein 1 1;
#X floatatom 67 646 3 0 0 0 - - -;
#X floatatom 11 702 3 0 0 0 - - -;
#X floatatom 69 704 3 0 0 0 - - -;
#X obj 12 678 notein 1 3;
#X floatatom 1243 649 3 0 0 0 - - -;
#X floatatom 1306 648 3 0 0 0 - - -;
#X floatatom 107 647 3 0 0 0 - - -;
#X floatatom 164 647 3 0 0 0 - - -;
#X floatatom 109 705 3 0 0 0 - - -;
#X floatatom 166 705 3 0 0 0 - - -;
#X floatatom 203 646 3 0 0 0 - - -;
#X obj 203 622 notein 1 1;
#X floatatom 260 646 3 0 0 0 - - -;
#X floatatom 205 704 3 0 0 0 - - -;
#X floatatom 262 704 3 0 0 0 - - -;
#X obj 205 678 notein 1 3;
#X floatatom 303 644 3 0 0 0 - - -;
#X obj 303 620 notein 1 1;
#X floatatom 360 644 3 0 0 0 - - -;
#X floatatom 305 702 3 0 0 0 - - -;
#X floatatom 362 702 3 0 0 0 - - -;
#X obj 305 676 notein 1 3;
#X floatatom 450 643 3 0 0 0 - - -;
#X obj 450 619 notein 1 1;
#X floatatom 507 643 3 0 0 0 - - -;
#X floatatom 452 701 3 0 0 0 - - -;
#X floatatom 509 701 3 0 0 0 - - -;
#X obj 452 675 notein 1 3;
#X floatatom 547 644 3 0 0 0 - - -;
#X obj 547 620 notein 1 1;
#X floatatom 604 644 3 0 0 0 - - -;
#X floatatom 549 702 3 0 0 0 - - -;
#X floatatom 606 702 3 0 0 0 - - -;
#X obj 549 676 notein 1 3;
#X floatatom 643 643 3 0 0 0 - - -;
#X obj 643 619 notein 1 1;
#X floatatom 700 643 3 0 0 0 - - -;
#X floatatom 645 701 3 0 0 0 - - -;
#X floatatom 702 701 3 0 0 0 - - -;
#X obj 645 675 notein 1 3;
#X floatatom 743 641 3 0 0 0 - - -;
#X obj 743 617 notein 1 1;
#X floatatom 800 641 3 0 0 0 - - -;
#X floatatom 745 699 3 0 0 0 - - -;
#X floatatom 802 699 3 0 0 0 - - -;
#X obj 745 673 notein 1 3;
#X obj 1243 623 notein 1 27;
#X floatatom 1225 414 3 0 0 0 - - -;
#X floatatom 1288 413 3 0 0 0 - - -;
#X obj 1225 388 notein 1 26;
#X obj 107 623 notein 1 4;
#X obj 109 679 notein 1 6;
#X floatatom 20 493 5 0 0 0 - - -;
#X obj 1007 737 output~;
#X obj 666 598 +~;
#X obj 470 597 +~;
#X obj 232 589 +~;
#X obj -111 581 +~;
#X obj -111 558 +~;
#X obj -111 602 +~;
#X obj -111 621 +~;
#X obj 470 557 osc~ 78.708;
#X obj 19 553 osc~ 46.572;
#X obj 139 555 osc~ 47;
#X obj 328 554 osc~ 61;
#X obj 570 555 osc~ 79;
#X obj 232 555 osc~ 60.544;
#X obj 19 579 +~;
#X floatatom 139 490 5 0 0 0 - - -;
#X floatatom 233 489 5 0 0 0 - - -;
#X floatatom 328 487 5 0 0 0 - - -;
#X floatatom 467 488 5 0 0 0 - - -;
#X floatatom 569 484 5 0 0 0 - - -;
#X floatatom 664 480 5 0 0 0 - - -;
#X floatatom 756 478 5 0 0 0 - - -;
#X floatatom 34 -33 5 0 0 0 - - -;
#X obj 675 72 +~;
#X obj 479 71 +~;
#X obj 246 58 +~;
#X obj 33 48 +~;
#X floatatom 152 -30 5 0 0 0 - - -;
#X floatatom 244 -36 5 0 0 0 - - -;
#X floatatom 340 -41 5 0 0 0 - - -;
#X floatatom 479 -18 5 0 0 0 - - -;
#X floatatom 580 -16 5 0 0 0 - - -;
#X floatatom 675 -20 5 0 0 0 - - -;
#X floatatom 25 220 5 0 0 0 - - -;
#X obj 241 295 +~;
#X obj 26 301 +~;
#X floatatom 149 217 5 0 0 0 - - -;
#X floatatom 241 215 5 0 0 0 - - -;
#X floatatom 334 214 5 0 0 0 - - -;
#X floatatom 478 211 5 0 0 0 - - -;
#X floatatom 578 208 5 0 0 0 - - -;
#X floatatom 673 207 5 0 0 0 - - -;
#X floatatom 766 205 5 0 0 0 - - -;
#X floatatom 767 -22 5 0 0 0 - - -;
#X obj -110 64 +~;
#X obj -110 42 +~;
#X obj -110 84 +~;
#X obj -110 104 +~;
#X obj 33 27 osc~ 1046.57;
#X obj 149 30 osc~ 1047;
#X obj 246 24 osc~ 1060.54;
#X obj 342 23 osc~ 1061;
#X obj 479 46 osc~ 1078.71;
#X obj 577 53 osc~ 1079;
#X obj 675 50 osc~ 1002.32;
#X obj -111 341 +~;
#X obj -111 319 +~;
#X obj -111 363 +~;
#X obj -111 387 +~;
#X obj 477 295 +~;
#X obj 672 294 +~;
#X floatatom 335 257 5 0 0 0 - - -;
#X obj 335 234 * 3;
#X obj 335 278 osc~ 381;
#X floatatom 241 254 5 0 0 0 - - -;
#X floatatom 148 256 5 0 0 0 - - -;
#X floatatom 26 257 5 0 0 0 - - -;
#X obj 241 234 * 2.9;
#X obj 241 274 osc~ 368.33;
#X obj 148 236 * 2.8;
#X obj 148 276 osc~ 356;
#X obj 26 238 * 2.7;
#X obj 26 277 osc~ 343;
#X obj 477 271 osc~ 475;
#X obj 577 270 osc~ 485;
#X obj 672 266 osc~ 577.5;
#X obj 766 272 osc~ 582.5;
#X floatatom 766 250 5 0 0 0 - - -;
#X floatatom 673 248 5 0 0 0 - - -;
#X floatatom 578 250 5 0 0 0 - - -;
#X floatatom 477 251 5 0 0 0 - - -;
#X obj 25 104 ctlin 17 1;
#X obj 147 103 ctlin 21 1;
#X obj 240 104 ctlin 25 1;
#X obj 335 102 ctlin 29 1;
#X obj 477 97 ctlin 47 1;
#X obj 578 95 ctlin 51 1;
#X obj 673 95 ctlin 55 1;
#X obj 766 92 ctlin 59 1;
#X obj 768 -164 ctlin 58 1;
#X obj 675 -164 ctlin 54 1;
#X obj 580 -162 ctlin 50 1;
#X obj 479 -160 ctlin 46 1;
#X obj 340 -158 ctlin 28 1;
#X obj 245 -156 ctlin 24 1;
#X obj 152 -157 ctlin 20 1;
#X obj 34 -153 ctlin 16 1;
#X obj 477 231 * 3.74;
#X obj 578 230 * 3.82;
#X obj 673 227 * 4.55;
#X obj 766 227 * 4.58;
#X text 1241 -136 SEND ALL;
#X floatatom 757 526 5 0 0 0 - - -;
#X floatatom 664 524 5 0 0 0 - - -;
#X floatatom 569 526 5 0 0 0 - - -;
#X floatatom 468 527 5 0 0 0 - - -;
#X obj 757 503 * 0.82;
#X obj 664 503 * 0.81;
#X obj 666 555 osc~ 103;
#X obj 759 570 osc~ 104;
#X obj 468 507 * 0.62;
#X obj 569 506 * 0.625;
#X floatatom 328 534 5 0 0 0 - - -;
#X floatatom 233 536 5 0 0 0 - - -;
#X floatatom 139 533 5 0 0 0 - - -;
#X floatatom 19 533 5 0 0 0 - - -;
#X obj 328 511 * 0.5;
#X obj 233 515 * 0.48;
#X obj 139 513 * 0.37;
#X obj 18 513 * 0.365;
#X floatatom 768 25 5 0 0 0 - - -;
#X floatatom 675 23 5 0 0 0 - - -;
#X floatatom 580 25 5 0 0 0 - - -;
#X floatatom 479 26 5 0 0 0 - - -;
#X obj 580 5 * 8.5;
#X obj 478 6 * 8.49;
#X obj 675 3 * 7.9;
#X obj 768 2 * 8;
#X obj 763 54 osc~ 1016;
#X floatatom 340 3 5 0 0 0 - - -;
#X floatatom 244 4 5 0 0 0 - - -;
#X floatatom 150 11 5 0 0 0 - - -;
#X floatatom 34 6 5 0 0 0 - - -;
#X obj 150 -9 * 8.25;
#X obj 33 -14 * 8.24;
#X obj 244 -16 * 8.35;
#X obj 340 -19 * 8.36;
#X floatatom 1222 128 3 0 0 0 - - -;
#X floatatom 1285 127 3 0 0 0 - - -;
#X obj 1222 102 notein 1 25;
#X floatatom 931 559 5 0 0 0 - - -;
#X obj 1134 646 +~;
#X obj 1048 663 +~;
#X obj 964 648 +~;
#X text 1070 584 comment;
#X obj 885 638 +~;
#X obj 927 523 knob 32 32 30 247 0 0 empty empty empty 0 -8 0 8 -262144
-1 -1 0 1;
#X floatatom 1003 565 5 0 0 0 - - -;
#X obj 997 527 knob 32 32 30 261 0 0 empty empty empty 0 -8 0 8 -262144
-1 -1 0 1;
#X obj 1067 528 knob 32 32 30 279 0 0 empty empty empty 0 -8 0 8 -262144
-1 -1 0 1;
#X floatatom 1142 567 5 0 0 0 - - -;
#X obj 1134 528 knob 32 32 30 203 0 0 empty empty empty 0 -8 0 8 -262144
-1 -1 0 1;
#X floatatom 1076 565 5 0 0 0 - - -;
#X obj 854 672 +~;
#X obj 854 649 +~;
#X obj 854 693 +~;
#X obj 854 712 +~;
#X floatatom 878 240 5 0 0 0 - - -;
#X obj 1091 325 +~;
#X obj 1009 329 +~;
#X obj 929 331 +~;
#X obj 849 323 +~;
#X obj 873 202 knob 32 32 30 347 0 0 empty empty empty 0 -8 0 8 -262144
-1 -1 0 1;
#X floatatom 957 243 5 0 0 0 - - -;
#X obj 943 202 knob 32 32 30 361 0 0 empty empty empty 0 -8 0 8 -262144
-1 -1 0 1;
#X obj 1010 206 knob 32 32 30 379 0 0 empty empty empty 0 -8 0 8 -262144
-1 -1 0 1;
#X floatatom 1090 249 5 0 0 0 - - -;
#X obj 1079 204 knob 32 32 30 303 0 0 empty empty empty 0 -8 0 8 -262144
-1 -1 0 1;
#X floatatom 1014 248 5 0 0 0 - - -;
#X obj 860 376 +~;
#X obj 860 353 +~;
#X obj 860 397 +~;
#X obj 860 416 +~;
#X obj 848 275 osc~ 346.572;
#X obj 864 300 osc~ 347;
#X obj 930 275 osc~ 360.544;
#X obj 945 304 osc~ 361;
#X obj 1079 180 random 503;
#X obj 873 178 random 347;
#X obj 942 180 random 361;
#X obj 1011 183 random 479;
#X obj 1010 273 osc~ 378.708;
#X obj 1025 305 osc~ 379;
#X obj 1092 273 osc~ 302.321;
#X obj 1107 295 osc~ 303;
#X text 1246 593 BANK RIGHT;
#X floatatom 938 -43 5 0 0 0 - - -;
#X obj 1141 44 +~;
#X obj 1055 61 +~;
#X obj 971 46 +~;
#X obj 892 36 +~;
#X obj 934 -79 knob 32 32 30 10047 0 0 empty empty empty 0 -8 0 8 -262144
-1 -1 0 1;
#X floatatom 1011 -38 5 0 0 0 - - -;
#X obj 1008 -75 knob 32 32 30 10061 0 0 empty empty empty 0 -8 0 8
-262144 -1 -1 0 1;
#X obj 1081 -76 knob 32 32 30 10079 0 0 empty empty empty 0 -8 0 8
-262144 -1 -1 0 1;
#X floatatom 1161 -34 5 0 0 0 - - -;
#X obj 1153 -73 knob 32 32 30 10003 0 0 empty empty empty 0 -8 0 8
-262144 -1 -1 0 1;
#X floatatom 1090 -39 5 0 0 0 - - -;
#X obj 861 70 +~;
#X obj 861 47 +~;
#X obj 861 91 +~;
#X obj 861 110 +~;
#X text 1228 359 BANK LEFT;
#X msg 1033 -167 stop;
#X msg 991 117 stop;
#X msg 1028 431 stop;
#X obj 891 -12 osc~ 10046.6;
#X obj 908 13 osc~ 10047;
#X obj 935 -102 random 10047;
#X obj 987 19 osc~ 10061;
#X obj 972 -10 osc~ 10060.5;
#X obj 1055 -10 osc~ 100079;
#X obj 1070 22 osc~ 10079;
#X obj 1157 14 osc~ 10003;
#X obj 1142 -8 osc~ 10002.3;
#X obj 1153 -99 random 10003;
#X obj 1080 -99 random 10079;
#X obj 1008 -100 random 10061;
#X obj 693 1079 osc~ 70;
#X obj 745 1080 osc~ 80;
#X obj 693 1157 equal_power_pan~;
#X obj 566 1141 equal_power_pan~;
#X obj 581 1226 dac~ 1 2;
#X obj 448 1172 equal_power_pan~;
#X obj 630 1068 osc~ 94;
#X obj 442 1064 osc~ 91;
#X obj 798 1080 osc~ 72.5;
#X obj 865 1082 osc~ 75;
#X obj 925 1081 osc~ 77.5;
#X obj 693 1111 phasor~ 0.5;
#X obj 448 1127 phasor~ 0.3;
#X obj 335 1098 osc~ 155;
#X obj 387 1099 osc~ 165;
#X obj 438 1098 osc~ 157.5;
#X obj 505 1098 osc~ 160;
#X obj 935 -126 metro 1600;
#X obj 1009 -126 metro 1800;
#X obj 1079 -127 metro 2000;
#X obj 1152 -124 metro 2200;
#X obj 873 154 metro 1600;
#X obj 943 154 metro 1800;
#X obj 1010 155 metro 2000;
#X obj 1078 155 metro 2200;
#X obj 507 1066 osc~ 92;
#X obj 565 1066 osc~ 93;
#X obj 564 1095 phasor~ 0.25;
#X obj 928 476 metro 1600;
#X obj 998 476 metro 2000;
#X obj 1065 477 metro 2400;
#X obj 1133 477 metro 2800;
#X obj -39 1171 equal_power_pan~;
#X obj -39 1126 phasor~ 0.3;
#X obj -152 1097 osc~ 169;
#X obj -100 1098 osc~ 175;
#X obj -49 1097 osc~ 147.5;
#X obj 18 1097 osc~ 140;
#X obj -38 1148 *~ 0.3;
#X obj 565 1117 *~ 0.3;
#X obj 693 1131 *~ 0.3;
#X obj 449 1149 *~ 0.3;
#X obj 928 500 random 247;
#X obj 997 502 random 261;
#X obj 1066 505 random 279;
#X obj 1134 502 random 1203;
#X obj 1135 594 osc~ 202.321;
#X obj 1150 616 osc~ 203;
#X obj 1048 592 osc~ 278.708;
#X obj 1063 624 osc~ 279;
#X obj 965 592 osc~ 260.544;
#X obj 980 621 osc~ 261;
#X obj 884 590 osc~ 246.572;
#X obj 900 615 osc~ 247;
#X text 1118 757 SubLime \, Miguel Oliveros Madrid \, 2015;
#X connect 0 0 1 0;
#X connect 0 0 116 0;
#X connect 3 0 4 0;
#X connect 3 0 122 0;
#X connect 6 0 7 0;
#X connect 6 0 125 0;
#X connect 9 0 10 0;
#X connect 9 0 140 0;
#X connect 12 0 13 0;
#X connect 12 0 117 0;
#X connect 15 0 16 0;
#X connect 15 0 118 0;
#X connect 18 0 6 0;
#X connect 18 0 8 0;
#X connect 19 0 9 0;
#X connect 19 0 11 0;
#X connect 20 0 21 0;
#X connect 20 0 134 0;
#X connect 23 0 24 0;
#X connect 23 0 119 0;
#X connect 26 0 27 0;
#X connect 26 0 120 0;
#X connect 29 0 30 0;
#X connect 29 0 121 0;
#X connect 32 0 33 0;
#X connect 32 0 137 0;
#X connect 33 0 444 0;
#X connect 33 0 445 0;
#X connect 33 0 446 0;
#X connect 33 0 447 0;
#X connect 36 0 37 0;
#X connect 36 0 124 0;
#X connect 39 0 40 0;
#X connect 39 0 135 0;
#X connect 42 0 43 0;
#X connect 42 0 128 0;
#X connect 45 0 46 0;
#X connect 45 0 129 0;
#X connect 48 0 49 0;
#X connect 48 0 130 0;
#X connect 51 0 52 0;
#X connect 51 0 138 0;
#X connect 52 0 440 0;
#X connect 52 0 441 0;
#X connect 52 0 442 0;
#X connect 52 0 443 0;
#X connect 55 0 56 0;
#X connect 55 0 127 0;
#X connect 58 0 59 0;
#X connect 58 0 136 0;
#X connect 61 0 62 0;
#X connect 61 0 131 0;
#X connect 64 0 65 0;
#X connect 64 0 132 0;
#X connect 67 0 68 0;
#X connect 67 0 133 0;
#X connect 70 0 71 0;
#X connect 70 0 139 0;
#X connect 71 0 451 0;
#X connect 71 0 452 0;
#X connect 71 0 453 0;
#X connect 71 0 454 0;
#X connect 73 0 74 0;
#X connect 73 0 126 0;
#X connect 75 0 76 0;
#X connect 75 0 123 0;
#X connect 78 0 79 0;
#X connect 78 0 142 0;
#X connect 81 0 82 0;
#X connect 81 0 143 0;
#X connect 84 0 85 0;
#X connect 84 0 144 0;
#X connect 87 0 88 0;
#X connect 87 0 145 0;
#X connect 90 0 91 0;
#X connect 90 0 146 0;
#X connect 93 0 94 0;
#X connect 93 0 147 0;
#X connect 96 0 97 0;
#X connect 96 0 141 0;
#X connect 98 0 54 0;
#X connect 98 0 73 0;
#X connect 99 0 77 0;
#X connect 99 0 96 0;
#X connect 100 0 55 0;
#X connect 100 0 57 0;
#X connect 101 0 78 0;
#X connect 101 0 80 0;
#X connect 102 0 58 0;
#X connect 102 0 60 0;
#X connect 103 0 81 0;
#X connect 103 0 83 0;
#X connect 104 0 61 0;
#X connect 104 0 63 0;
#X connect 105 0 84 0;
#X connect 105 0 86 0;
#X connect 106 0 87 0;
#X connect 106 0 89 0;
#X connect 107 0 90 0;
#X connect 107 0 92 0;
#X connect 108 0 93 0;
#X connect 108 0 95 0;
#X connect 109 0 110 0;
#X connect 109 0 148 0;
#X connect 112 0 109 0;
#X connect 112 0 111 0;
#X connect 113 0 64 0;
#X connect 113 0 66 0;
#X connect 114 0 67 0;
#X connect 114 0 69 0;
#X connect 115 0 70 0;
#X connect 115 0 72 0;
#X connect 116 0 238 0;
#X connect 117 0 241 0;
#X connect 118 0 242 0;
#X connect 119 0 244 0;
#X connect 120 0 245 0;
#X connect 121 0 246 0;
#X connect 122 0 227 0;
#X connect 123 0 232 0;
#X connect 124 0 233 0;
#X connect 125 0 204 0;
#X connect 126 0 220 0;
#X connect 127 0 221 0;
#X connect 128 0 235 0;
#X connect 129 0 236 0;
#X connect 130 0 237 0;
#X connect 131 0 223 0;
#X connect 132 0 224 0;
#X connect 133 0 225 0;
#X connect 134 0 243 0;
#X connect 135 0 234 0;
#X connect 136 0 222 0;
#X connect 137 0 247 0;
#X connect 138 0 248 0;
#X connect 139 0 226 0;
#X connect 140 0 455 1;
#X connect 145 0 428 1;
#X connect 146 0 426 1;
#X connect 147 0 425 1;
#X connect 148 0 434 1;
#X connect 148 0 435 1;
#X connect 148 0 427 1;
#X connect 148 0 427 0;
#X connect 148 0 455 1;
#X connect 148 0 461 1;
#X connect 148 0 462 1;
#X connect 151 0 150 0;
#X connect 151 1 152 0;
#X connect 155 0 153 0;
#X connect 155 1 154 0;
#X connect 163 0 162 0;
#X connect 163 1 164 0;
#X connect 167 0 165 0;
#X connect 167 1 166 0;
#X connect 169 0 168 0;
#X connect 169 1 170 0;
#X connect 173 0 171 0;
#X connect 173 1 172 0;
#X connect 175 0 174 0;
#X connect 175 1 176 0;
#X connect 179 0 177 0;
#X connect 179 1 178 0;
#X connect 181 0 180 0;
#X connect 181 1 182 0;
#X connect 185 0 183 0;
#X connect 185 1 184 0;
#X connect 187 0 186 0;
#X connect 187 1 188 0;
#X connect 191 0 189 0;
#X connect 191 1 190 0;
#X connect 193 0 192 0;
#X connect 193 1 194 0;
#X connect 194 0 410 0;
#X connect 194 0 409 0;
#X connect 194 0 408 0;
#X connect 197 0 195 0;
#X connect 197 1 196 0;
#X connect 198 0 156 0;
#X connect 198 1 157 0;
#X connect 201 0 199 0;
#X connect 201 1 200 0;
#X connect 202 0 158 0;
#X connect 202 1 159 0;
#X connect 203 0 160 0;
#X connect 203 1 161 0;
#X connect 204 0 324 0;
#X connect 206 0 212 1;
#X connect 207 0 211 1;
#X connect 208 0 209 1;
#X connect 209 0 211 0;
#X connect 210 0 209 0;
#X connect 211 0 212 0;
#X connect 212 0 205 0;
#X connect 212 0 205 1;
#X connect 213 0 207 0;
#X connect 214 0 219 0;
#X connect 215 0 219 1;
#X connect 216 0 208 1;
#X connect 217 0 207 1;
#X connect 218 0 208 0;
#X connect 219 0 210 1;
#X connect 220 0 323 0;
#X connect 221 0 322 0;
#X connect 222 0 321 0;
#X connect 223 0 315 0;
#X connect 224 0 316 0;
#X connect 225 0 312 0;
#X connect 226 0 311 0;
#X connect 227 0 339 0;
#X connect 228 0 252 1;
#X connect 229 0 251 1;
#X connect 230 0 249 1;
#X connect 231 0 250 1;
#X connect 232 0 338 0;
#X connect 233 0 340 0;
#X connect 234 0 341 0;
#X connect 235 0 330 0;
#X connect 236 0 329 0;
#X connect 237 0 331 0;
#X connect 238 0 276 0;
#X connect 239 0 260 1;
#X connect 240 0 261 1;
#X connect 241 0 274 0;
#X connect 242 0 272 0;
#X connect 243 0 267 0;
#X connect 244 0 302 0;
#X connect 245 0 303 0;
#X connect 246 0 304 0;
#X connect 247 0 305 0;
#X connect 248 0 332 0;
#X connect 249 0 251 0;
#X connect 250 0 249 0;
#X connect 251 0 252 0;
#X connect 252 0 261 0;
#X connect 253 0 231 0;
#X connect 254 0 231 1;
#X connect 255 0 230 0;
#X connect 256 0 230 1;
#X connect 257 0 229 0;
#X connect 258 0 229 1;
#X connect 259 0 228 0;
#X connect 260 0 262 0;
#X connect 261 0 260 0;
#X connect 262 0 263 0;
#X connect 263 0 210 0;
#X connect 264 0 262 1;
#X connect 265 0 263 1;
#X connect 266 0 268 0;
#X connect 267 0 266 0;
#X connect 268 0 239 1;
#X connect 269 0 273 0;
#X connect 270 0 275 0;
#X connect 271 0 277 0;
#X connect 272 0 269 0;
#X connect 273 0 239 0;
#X connect 274 0 270 0;
#X connect 275 0 240 1;
#X connect 276 0 271 0;
#X connect 277 0 240 0;
#X connect 278 0 264 0;
#X connect 279 0 264 1;
#X connect 280 0 265 0;
#X connect 281 0 265 1;
#X connect 282 0 281 0;
#X connect 283 0 280 0;
#X connect 284 0 279 0;
#X connect 285 0 278 0;
#X connect 286 0 0 0;
#X connect 286 0 2 0;
#X connect 287 0 12 0;
#X connect 287 0 14 0;
#X connect 288 0 15 0;
#X connect 288 0 17 0;
#X connect 289 0 20 0;
#X connect 289 0 22 0;
#X connect 290 0 23 0;
#X connect 290 0 25 0;
#X connect 291 0 26 0;
#X connect 291 0 28 0;
#X connect 292 0 29 0;
#X connect 292 0 31 0;
#X connect 293 0 32 0;
#X connect 293 0 34 0;
#X connect 294 0 51 0;
#X connect 294 0 53 0;
#X connect 295 0 48 0;
#X connect 295 0 50 0;
#X connect 296 0 45 0;
#X connect 296 0 47 0;
#X connect 297 0 42 0;
#X connect 297 0 44 0;
#X connect 298 0 39 0;
#X connect 298 0 41 0;
#X connect 299 0 36 0;
#X connect 299 0 38 0;
#X connect 300 0 35 0;
#X connect 300 0 75 0;
#X connect 301 0 3 0;
#X connect 301 0 5 0;
#X connect 302 0 285 0;
#X connect 303 0 284 0;
#X connect 304 0 283 0;
#X connect 305 0 282 0;
#X connect 307 0 314 0;
#X connect 308 0 313 0;
#X connect 309 0 217 0;
#X connect 310 0 213 0;
#X connect 311 0 307 0;
#X connect 312 0 308 0;
#X connect 313 0 206 0;
#X connect 314 0 206 1;
#X connect 315 0 310 0;
#X connect 316 0 309 0;
#X connect 317 0 216 0;
#X connect 318 0 218 0;
#X connect 319 0 215 0;
#X connect 320 0 214 0;
#X connect 321 0 317 0;
#X connect 322 0 318 0;
#X connect 323 0 319 0;
#X connect 324 0 320 0;
#X connect 325 0 333 0;
#X connect 326 0 259 0;
#X connect 327 0 258 0;
#X connect 328 0 257 0;
#X connect 329 0 327 0;
#X connect 330 0 328 0;
#X connect 331 0 326 0;
#X connect 332 0 325 0;
#X connect 333 0 228 1;
#X connect 334 0 256 0;
#X connect 335 0 255 0;
#X connect 336 0 254 0;
#X connect 337 0 253 0;
#X connect 338 0 336 0;
#X connect 339 0 337 0;
#X connect 340 0 335 0;
#X connect 341 0 334 0;
#X connect 344 0 342 0;
#X connect 344 1 343 0;
#X connect 346 0 361 1;
#X connect 347 0 360 1;
#X connect 348 0 358 1;
#X connect 350 0 359 1;
#X connect 351 0 345 0;
#X connect 351 0 475 0;
#X connect 353 0 352 0;
#X connect 353 0 473 0;
#X connect 353 0 476 0;
#X connect 354 0 357 0;
#X connect 354 0 471 0;
#X connect 354 0 474 0;
#X connect 356 0 355 0;
#X connect 356 0 469 0;
#X connect 356 0 472 0;
#X connect 358 0 360 0;
#X connect 359 0 358 0;
#X connect 360 0 361 0;
#X connect 361 0 205 0;
#X connect 361 0 205 1;
#X connect 363 0 377 1;
#X connect 364 0 376 1;
#X connect 365 0 374 1;
#X connect 366 0 375 1;
#X connect 367 0 362 0;
#X connect 367 0 378 0;
#X connect 369 0 368 0;
#X connect 369 0 379 0;
#X connect 369 0 380 0;
#X connect 370 0 373 0;
#X connect 370 0 381 0;
#X connect 370 0 386 0;
#X connect 372 0 371 0;
#X connect 372 0 387 0;
#X connect 372 0 388 0;
#X connect 374 0 376 0;
#X connect 375 0 374 0;
#X connect 376 0 377 0;
#X connect 377 0 205 0;
#X connect 377 0 205 1;
#X connect 378 0 366 0;
#X connect 379 0 366 1;
#X connect 380 0 365 0;
#X connect 381 0 365 1;
#X connect 382 0 372 0;
#X connect 383 0 367 0;
#X connect 384 0 369 0;
#X connect 385 0 370 0;
#X connect 386 0 364 0;
#X connect 387 0 364 1;
#X connect 388 0 363 0;
#X connect 389 0 363 1;
#X connect 392 0 406 1;
#X connect 393 0 405 1;
#X connect 394 0 403 1;
#X connect 395 0 404 1;
#X connect 396 0 391 0;
#X connect 396 0 411 0;
#X connect 398 0 397 0;
#X connect 398 0 412 0;
#X connect 398 0 415 0;
#X connect 399 0 402 0;
#X connect 399 0 414 0;
#X connect 399 0 416 0;
#X connect 401 0 400 0;
#X connect 401 0 417 0;
#X connect 401 0 419 0;
#X connect 403 0 405 0;
#X connect 404 0 403 0;
#X connect 405 0 406 0;
#X connect 406 0 205 0;
#X connect 406 0 205 1;
#X connect 408 0 440 0;
#X connect 408 0 441 0;
#X connect 408 0 442 0;
#X connect 408 0 443 0;
#X connect 409 0 444 0;
#X connect 409 0 445 0;
#X connect 409 0 446 0;
#X connect 409 0 447 0;
#X connect 410 0 451 0;
#X connect 410 0 452 0;
#X connect 410 0 453 0;
#X connect 410 0 454 0;
#X connect 411 0 395 0;
#X connect 412 0 395 1;
#X connect 413 0 396 0;
#X connect 414 0 394 1;
#X connect 415 0 394 0;
#X connect 416 0 393 0;
#X connect 417 0 393 1;
#X connect 418 0 392 1;
#X connect 419 0 392 0;
#X connect 420 0 401 0;
#X connect 421 0 399 0;
#X connect 422 0 398 0;
#X connect 423 0 434 0;
#X connect 424 0 434 0;
#X connect 425 0 427 0;
#X connect 425 1 427 1;
#X connect 426 0 427 0;
#X connect 426 1 427 1;
#X connect 428 0 427 0;
#X connect 428 1 427 1;
#X connect 429 0 450 0;
#X connect 430 0 450 0;
#X connect 431 0 434 0;
#X connect 432 0 434 0;
#X connect 433 0 434 0;
#X connect 434 0 463 0;
#X connect 435 0 464 0;
#X connect 436 0 435 0;
#X connect 437 0 435 0;
#X connect 438 0 435 0;
#X connect 439 0 435 0;
#X connect 440 0 413 0;
#X connect 441 0 422 0;
#X connect 442 0 421 0;
#X connect 443 0 420 0;
#X connect 444 0 383 0;
#X connect 445 0 384 0;
#X connect 446 0 385 0;
#X connect 447 0 382 0;
#X connect 448 0 450 0;
#X connect 449 0 450 0;
#X connect 450 0 462 0;
#X connect 451 0 465 0;
#X connect 452 0 466 0;
#X connect 453 0 467 0;
#X connect 454 0 468 0;
#X connect 455 0 427 0;
#X connect 455 1 427 1;
#X connect 456 0 461 0;
#X connect 457 0 456 0;
#X connect 458 0 456 0;
#X connect 459 0 456 0;
#X connect 460 0 456 0;
#X connect 461 0 455 0;
#X connect 462 0 426 0;
#X connect 463 0 425 0;
#X connect 464 0 428 0;
#X connect 465 0 351 0;
#X connect 466 0 353 0;
#X connect 467 0 354 0;
#X connect 468 0 356 0;
#X connect 469 0 346 0;
#X connect 470 0 346 1;
#X connect 471 0 347 0;
#X connect 472 0 347 1;
#X connect 473 0 348 0;
#X connect 474 0 348 1;
#X connect 475 0 350 0;
#X connect 476 0 350 1;
